<?xml version="1.0" encoding="utf-8"?>
<!-- Generator: Adobe Illustrator 25.0.1, SVG Export Plug-In . SVG Version: 6.00 Build 0)  -->
<svg version="1.1" xmlns="http://www.w3.org/2000/svg" xmlns:xlink="http://www.w3.org/1999/xlink" x="0px" y="0px"
	 viewBox="0 0 363.3 297.9" style="enable-background:new 0 0 363.3 297.9;" xml:space="preserve">
<style type="text/css">
	.st0{fill:#fafafa;}
</style>

<g id="Calque_3">
	<g>
		<path class="st0" d="M230.11,83.5c-18.32,0-34.04,6.74-45.46,17.72l10.19,22.66c7.24-12.07,19.84-19.96,35.09-19.96
			c14.47,0,25.31,6.33,35.44,15.73l14.28-16.45C267.54,91.64,253.44,83.5,230.11,83.5z"/>
		<path class="st0" d="M184.39,194.34c-4.3-4.8-9.49-12.33-16.02-28.49l-6.92-16.96"/>
		<path class="st0" d="M268.54,177.52c-10.85,10.12-20.79,16.45-36.34,16.45c-20.15,0-29.28-7.94-39.81-29.44l-35.61-79.77h-20.61
			L80.48,212.24h22.78l13.02-30.56h38.83c-2.25-4.12-4.68-9.25-7.34-15.83l-1.59-3.88h-21.77l21.7-50.63l15.33,37.55l6.92,16.96
			c6.53,16.16,11.72,23.69,16.02,28.49c11.31,12.63,25.28,20.07,47.09,20.07c23.68,0,38.15-8.68,51.35-22.42L268.54,177.52z"/>
	</g>
</g>
</svg>
