<?xml version="1.0" encoding="utf-8"?>
<!-- Generator: Adobe Illustrator 25.0.1, SVG Export Plug-In . SVG Version: 6.00 Build 0)  -->
<svg version="1.1" xmlns="http://www.w3.org/2000/svg" xmlns:xlink="http://www.w3.org/1999/xlink" x="0px" y="0px"
	 viewBox="0 0 16 16" style="enable-background:new 0 0 16 16;" xml:space="preserve">
<style type="text/css">
	.st0{fill:#0D2F7C;}
	.st1{fill:#FFFFFF;}
</style>
<g id="Calque_2">
	<circle class="st0" cx="8" cy="8" r="8"/>
</g>
<g id="Calque_1">
	<g>
		<path class="st1" d="M11.15,3.74c-1.19,0-2.21,0.44-2.96,1.15l0.66,1.47c0.47-0.78,1.29-1.3,2.28-1.3c0.94,0,1.65,0.41,2.3,1.02
			l0.93-1.07C13.59,4.27,12.67,3.74,11.15,3.74z"/>
		<path class="st1" d="M13.65,9.86c-0.71,0.66-1.35,1.07-2.36,1.07c-1.31,0-1.9-0.52-2.59-1.91L6.38,3.83H5.04l-3.62,8.29H2.9
			l0.85-1.99h2.53C6.13,9.86,5.97,9.53,5.8,9.1l-0.1-0.25H4.28l1.41-3.29l1,2.44l0.45,1.1c0.42,1.05,0.76,1.54,1.04,1.85
			c0.74,0.82,1.64,1.3,3.06,1.3c1.54,0,2.48-0.56,3.34-1.46L13.65,9.86z"/>
	</g>
</g>
</svg>
